<svg xmlns="http://www.w3.org/2000/svg" viewBox="0 0 1200 520" role="img" aria-labelledby="title desc">
<title id="title">Administrative and operational consulting visual</title>
<desc id="desc">Governance documentation, process mapping, and operating discipline.</desc>
<defs>
  <linearGradient id="bg" x1="0" y1="0" x2="1" y2="1"><stop offset="0" stop-color="#06101f"/><stop offset=".52" stop-color="#10213d"/><stop offset="1" stop-color="#0b1322"/></linearGradient>
  <linearGradient id="gold" x1="0" y1="0" x2="1" y2="1"><stop offset="0" stop-color="#fff2bf"/><stop offset=".52" stop-color="#D4AF37"/><stop offset="1" stop-color="#A77B1E"/></linearGradient>
  <linearGradient id="teal" x1="0" y1="0" x2="1" y2="1"><stop offset="0" stop-color="#2EC4B6"/><stop offset="1" stop-color="#0E7670"/></linearGradient>
  <filter id="shadow" x="-20%" y="-20%" width="140%" height="140%"><feDropShadow dx="0" dy="18" stdDeviation="20" flood-color="#000" flood-opacity=".38"/></filter>
  <filter id="soft" x="-20%" y="-20%" width="140%" height="140%"><feGaussianBlur stdDeviation="30"/></filter>
</defs>
<rect width="1200" height="520" rx="36" fill="url(#bg)"/>
<circle cx="1050" cy="95" r="230" fill="#D4AF37" opacity=".08" filter="url(#soft)"/>
<circle cx="130" cy="430" r="250" fill="#2EC4B6" opacity=".10" filter="url(#soft)"/>
<g opacity=".09" stroke="#fff" fill="none"><path d="M70 85h520M70 435h410M760 440h350"/><path d="M75 120h310M875 90h220M875 126h165"/></g>

<g filter="url(#shadow)">
  <rect x="110" y="115" width="330" height="260" rx="30" fill="rgba(255,255,255,.07)" stroke="rgba(241,215,122,.32)"/>
  <rect x="155" y="165" width="210" height="24" rx="12" fill="url(#gold)"/>
  <rect x="155" y="220" width="240" height="16" rx="8" fill="#fff" opacity=".22"/><rect x="155" y="258" width="198" height="16" rx="8" fill="#fff" opacity=".16"/><rect x="155" y="296" width="230" height="16" rx="8" fill="#fff" opacity=".18"/>
</g>
<g filter="url(#shadow)" stroke-linecap="round">
  <rect x="620" y="88" width="155" height="90" rx="22" fill="rgba(255,255,255,.075)" stroke="rgba(46,196,182,.34)"/>
  <rect x="805" y="215" width="155" height="90" rx="22" fill="rgba(255,255,255,.075)" stroke="rgba(241,215,122,.34)"/>
  <rect x="620" y="342" width="155" height="90" rx="22" fill="rgba(255,255,255,.075)" stroke="rgba(46,196,182,.34)"/>
  <path d="M775 133 C850 145 880 172 882 215" stroke="url(#gold)" stroke-width="6" fill="none"/><path d="M882 305 C872 350 835 380 775 388" stroke="url(#teal)" stroke-width="6" fill="none"/>
  <circle cx="698" cy="133" r="21" fill="url(#gold)"/><circle cx="883" cy="260" r="21" fill="url(#teal)"/><circle cx="698" cy="387" r="21" fill="url(#gold)"/>
</g>

</svg>