<svg xmlns="http://www.w3.org/2000/svg" viewBox="0 0 1200 520" role="img" aria-labelledby="title desc">
<title id="title">Consulting advisory visual</title>
<desc id="desc">Professional consulting dashboard, meeting table, and performance indicators.</desc>
<defs>
  <linearGradient id="bg" x1="0" y1="0" x2="1" y2="1"><stop offset="0" stop-color="#0b1322"/><stop offset=".55" stop-color="#142646"/><stop offset="1" stop-color="#09101f"/></linearGradient>
  <linearGradient id="gold" x1="0" y1="0" x2="1" y2="1"><stop offset="0" stop-color="#F1D77A"/><stop offset=".55" stop-color="#D4AF37"/><stop offset="1" stop-color="#A77B1E"/></linearGradient>
  <linearGradient id="teal" x1="0" y1="0" x2="1" y2="1"><stop offset="0" stop-color="#2EC4B6"/><stop offset="1" stop-color="#127f78"/></linearGradient>
  <filter id="shadow" x="-20%" y="-20%" width="140%" height="140%"><feDropShadow dx="0" dy="18" stdDeviation="18" flood-color="#000" flood-opacity=".35"/></filter>
</defs>
<rect width="1200" height="520" rx="36" fill="url(#bg)"/>
<circle cx="1040" cy="90" r="210" fill="#D4AF37" opacity=".08"/>
<circle cx="120" cy="430" r="240" fill="#2EC4B6" opacity=".09"/>
<g opacity=".13" stroke="#F1D77A" stroke-width="2" fill="none"><path d="M70 110h340M70 154h240M70 198h310"/><path d="M830 395h260M830 438h190"/></g>
<g filter="url(#shadow)">
  <rect x="110" y="95" width="410" height="270" rx="28" fill="rgba(255,255,255,.08)" stroke="rgba(241,215,122,.34)"/>
  <rect x="145" y="135" width="340" height="32" rx="16" fill="url(#gold)" opacity=".95"/>
  <rect x="145" y="197" width="76" height="116" rx="12" fill="url(#teal)" opacity=".75"/>
  <rect x="245" y="170" width="76" height="143" rx="12" fill="url(#gold)" opacity=".85"/>
  <rect x="345" y="218" width="76" height="95" rx="12" fill="#ffffff" opacity=".25"/>
  <path d="M145 334 C230 270, 270 285, 335 225 C390 176, 430 190, 485 145" fill="none" stroke="#F1D77A" stroke-width="8" stroke-linecap="round"/>
  <circle cx="485" cy="145" r="13" fill="#2EC4B6"/>
</g>
<g filter="url(#shadow)">
  <rect x="610" y="110" width="430" height="265" rx="28" fill="rgba(255,255,255,.075)" stroke="rgba(46,196,182,.32)"/>
  <rect x="650" y="150" width="160" height="18" rx="9" fill="#F1D77A" opacity=".88"/>
  <rect x="650" y="192" width="320" height="16" rx="8" fill="#fff" opacity=".20"/>
  <rect x="650" y="228" width="275" height="16" rx="8" fill="#fff" opacity=".16"/>
  <rect x="650" y="268" width="90" height="60" rx="14" fill="url(#gold)" opacity=".92"/>
  <rect x="765" y="268" width="90" height="60" rx="14" fill="url(#teal)" opacity=".78"/>
  <rect x="880" y="268" width="90" height="60" rx="14" fill="#fff" opacity=".18"/>
</g>
<g stroke-linecap="round" stroke-linejoin="round" fill="none" opacity=".9">
  <path d="M520 412 C590 350, 650 420, 720 360 C775 312, 820 340, 880 292" stroke="url(#gold)" stroke-width="8"/>
  <path d="M884 292 l-8 42 M884 292 l-42 2" stroke="url(#gold)" stroke-width="8"/>
</g>
</svg>