<svg xmlns="http://www.w3.org/2000/svg" viewBox="0 0 1200 520" role="img" aria-labelledby="title desc">
<title id="title">Consulting advisory visual</title>
<desc id="desc">Professional consulting dashboard, executive meeting, and performance indicators.</desc>
<defs>
  <linearGradient id="bg" x1="0" y1="0" x2="1" y2="1"><stop offset="0" stop-color="#06101f"/><stop offset=".52" stop-color="#10213d"/><stop offset="1" stop-color="#0b1322"/></linearGradient>
  <linearGradient id="gold" x1="0" y1="0" x2="1" y2="1"><stop offset="0" stop-color="#fff2bf"/><stop offset=".52" stop-color="#D4AF37"/><stop offset="1" stop-color="#A77B1E"/></linearGradient>
  <linearGradient id="teal" x1="0" y1="0" x2="1" y2="1"><stop offset="0" stop-color="#2EC4B6"/><stop offset="1" stop-color="#0E7670"/></linearGradient>
  <filter id="shadow" x="-20%" y="-20%" width="140%" height="140%"><feDropShadow dx="0" dy="18" stdDeviation="20" flood-color="#000" flood-opacity=".38"/></filter>
  <filter id="soft" x="-20%" y="-20%" width="140%" height="140%"><feGaussianBlur stdDeviation="30"/></filter>
</defs>
<rect width="1200" height="520" rx="36" fill="url(#bg)"/>
<circle cx="1050" cy="95" r="230" fill="#D4AF37" opacity=".08" filter="url(#soft)"/>
<circle cx="130" cy="430" r="250" fill="#2EC4B6" opacity=".10" filter="url(#soft)"/>
<g opacity=".09" stroke="#fff" fill="none"><path d="M70 85h520M70 435h410M760 440h350"/><path d="M75 120h310M875 90h220M875 126h165"/></g>

<g filter="url(#shadow)">
  <rect x="105" y="90" width="450" height="300" rx="30" fill="rgba(255,255,255,.075)" stroke="rgba(241,215,122,.34)"/>
  <rect x="145" y="132" width="220" height="22" rx="11" fill="url(#gold)"/>
  <rect x="145" y="185" width="78" height="120" rx="14" fill="url(#teal)" opacity=".82"/>
  <rect x="255" y="160" width="78" height="145" rx="14" fill="url(#gold)" opacity=".92"/>
  <rect x="365" y="210" width="78" height="95" rx="14" fill="#ffffff" opacity=".22"/>
  <path d="M145 335 C225 292, 277 306, 338 238 C395 174, 430 188, 490 135" fill="none" stroke="#F1D77A" stroke-width="8" stroke-linecap="round"/>
  <circle cx="490" cy="135" r="14" fill="url(#teal)"/>
</g>
<g filter="url(#shadow)">
  <rect x="650" y="118" width="390" height="250" rx="30" fill="rgba(255,255,255,.065)" stroke="rgba(46,196,182,.34)"/>
  <circle cx="730" cy="205" r="46" fill="url(#gold)" opacity=".92"/>
  <circle cx="845" cy="205" r="46" fill="url(#teal)" opacity=".85"/>
  <circle cx="960" cy="205" r="46" fill="#fff" opacity=".18"/>
  <rect x="700" y="295" width="285" height="16" rx="8" fill="#fff" opacity=".22"/>
  <rect x="738" y="328" width="210" height="14" rx="7" fill="#fff" opacity=".16"/>
</g>

</svg>